<?xml version="1.0" standalone="no"?>
<!DOCTYPE svg PUBLIC "-//W3C//DTD SVG 20010904//EN"
 "http://www.w3.org/TR/2001/REC-SVG-20010904/DTD/svg10.dtd">
<svg version="1.0" xmlns="http://www.w3.org/2000/svg"
 width="719.000000pt" height="719.000000pt" viewBox="0 0 719.000000 719.000000"
 preserveAspectRatio="xMidYMid meet">
<metadata>
Created by potrace 1.14, written by Peter Selinger 2001-2017
</metadata>
<g transform="translate(0.000000,719.000000) scale(0.100000,-0.100000)"
fill="#000000" stroke="none">
<path d="M5607 7154 c-1 -1 -470 -4 -1042 -8 -2269 -13 -2790 -19 -2796 -28
-3 -5 -13 -109 -23 -231 -16 -215 -59 -787 -111 -1477 -14 -184 -32 -423 -41
-530 -8 -107 -21 -285 -29 -395 -34 -471 -45 -622 -50 -660 -3 -22 -10 -107
-15 -190 -29 -408 -147 -1964 -160 -2094 -5 -58 -10 -133 -10 -167 0 -35 -5
-66 -10 -69 -5 -3 -10 -21 -10 -40 0 -43 15 -48 215 -74 315 -42 413 -57 770
-116 127 -20 440 -65 570 -81 61 -7 130 -17 155 -22 25 -6 74 -13 110 -17 36
-4 139 -18 230 -31 91 -14 201 -29 245 -34 44 -6 118 -16 165 -24 47 -8 146
-22 220 -31 74 -9 169 -22 210 -30 41 -8 102 -17 135 -20 33 -3 72 -8 87 -11
25 -5 28 -2 40 38 7 24 13 52 14 63 1 11 20 85 43 165 24 80 49 170 57 200 8
30 26 96 40 145 35 120 80 274 104 360 11 39 33 117 50 175 17 58 39 137 50
175 11 39 73 252 136 475 64 223 119 414 122 425 2 11 79 279 169 595 91 316
168 584 171 595 9 36 161 568 188 660 15 50 30 104 34 120 11 41 76 269 95
330 8 28 54 185 101 350 47 165 115 401 151 525 35 124 69 241 75 260 163 574
198 701 198 713 0 13 -42 15 -326 14 -179 -1 -326 -3 -327 -3z"/>
<path d="M6400 6419 c19 -24 70 -86 112 -139 43 -52 78 -100 78 -106 0 -12
-295 -894 -660 -1974 -139 -410 -334 -990 -435 -1290 -465 -1382 -666 -1975
-673 -1982 -5 -5 -48 -13 -96 -20 -98 -12 -96 -19 14 -37 41 -7 110 -20 154
-28 43 -8 82 -11 86 -6 9 9 39 89 106 288 24 72 69 202 99 290 31 88 71 205
90 260 18 55 59 172 90 260 31 88 61 174 65 190 5 17 25 75 44 130 37 104 138
395 206 595 22 63 64 187 95 275 31 88 63 183 72 210 8 28 22 64 29 82 8 17
17 46 20 65 4 18 10 38 14 43 4 6 24 62 45 125 20 63 42 124 48 135 6 11 14
33 18 50 4 16 40 122 79 235 39 113 75 219 80 235 5 17 23 68 40 115 18 47 39
112 47 145 23 87 186 573 307 915 15 41 65 185 111 320 46 135 110 323 143
418 33 98 55 175 49 179 -5 3 -41 9 -81 14 -39 4 -125 15 -191 24 -66 9 -147
19 -180 22 l-59 6 34 -44z"/>
</g>
</svg>
